# xmcd
#
# Track frame offsets:
#	150
#	14180
#	28925
#	39302
#	45365
#	52185
#	62512
#	68490
#	74230
#	88740
#	97717
#	114645
#	130415
#	139997
#	152527
#	164280
#	178280
#	186162
#	197160
#	208137
#	215732
#	226440
#	237715
#	247157
#	258370
#	267687
#	275675
#	284025
#
# Disc length: 3879 seconds
#
# Revision: 0
# Processed by: cddbd v1.4PL0 Copyright (c) Steve Scherf et al.
# Submitted via: dBpowerAMP V4.0
#
DISCID=ca0f251c
DTITLE=Hank Snow - Thesaurus Transcriptions Vol 4 
DYEAR=1991
DGENRE=Country
TTITLE0=Patanio, The Pride Of The Plains - 1952
TTITLE1=That Heart Belongs To Me - 1952
TTITLE2=Peach Pickin' Time Down In Georgia - 1952
TTITLE3=Alabama Jubilee - 1952
TTITLE4=Farewell Blues - 1952
TTITLE5=In An Old Dutch Garden - 1952
TTITLE6=Sally Goodin' - 1952
TTITLE7=Arkansas Traveler - 1952
TTITLE8=A Petal From A Faded Rose - 1953
TTITLE9=It's A Sin - 1953
TTITLE10=Wedding Bells - 1953
TTITLE11=At Mail Call Today - 1953
TTITLE12=Those Blue Eyes Don't Sparkle Anymore - 1953
TTITLE13=Have I Stayed Away Too Long - 1953
TTITLE14=San Antonio Rose - 1953
TTITLE15=Each Minute Seems A Million Years - 1953
TTITLE16=Blue Steel Blues - 1953
TTITLE17=Then I Turned And Walked Slowly Away - 1953
TTITLE18=Blue Rose Of The Rio - 1953
TTITLE19=My Wubba Dolly - 1953
TTITLE20=Tuck Away My Lonesome Blues - 1953
TTITLE21=The Land Of My Childhood Dreams - 1953
TTITLE22=The Wreck OF The Old '97 - 1953
TTITLE23=My Life With You - 1953
TTITLE24=The One Rose, That's Left In My Heart - 1953
TTITLE25=I'm Coming Home-Song Of The Saddle - 1953
TTITLE26=Easter Parade - 1953
TTITLE27=Peter Cottontail - 1953
EXTD=
EXTT0=
EXTT1=
EXTT2=
EXTT3=
EXTT4=
EXTT5=
EXTT6=
EXTT7=
EXTT8=
EXTT9=
EXTT10=
EXTT11=
EXTT12=
EXTT13=
EXTT14=
EXTT15=
EXTT16=
EXTT17=
EXTT18=
EXTT19=
EXTT20=
EXTT21=
EXTT22=
EXTT23=
EXTT24=
EXTT25=
EXTT26=
EXTT27=
PLAYORDER=
